<!-- <svg width="270" height="34" viewBox="0 0 270 34" fill="none" xmlns="http://www.w3.org/2000/svg">
<path d="M13.168 33.836C11.1147 33.836 9.31067 33.484 7.756 32.78C6.23067 32.076 4.95467 31.1373 3.928 29.964C2.93067 28.7613 2.168 27.4267 1.64 25.96C1.14133 24.4933 0.892 22.9973 0.892 21.472V20.636C0.892 19.052 1.14133 17.5267 1.64 16.06C2.168 14.564 2.93067 13.244 3.928 12.1C4.95467 10.9267 6.216 10.0027 7.712 9.328C9.208 8.624 10.9387 8.272 12.904 8.272C15.4853 8.272 17.6413 8.844 19.372 9.988C21.132 11.1027 22.452 12.584 23.332 14.432C24.212 16.2507 24.652 18.216 24.652 20.328V22.528H3.488V18.788H20.824L18.932 20.636C18.932 19.1107 18.712 17.8053 18.272 16.72C17.832 15.6347 17.1573 14.7987 16.248 14.212C15.368 13.6253 14.2533 13.332 12.904 13.332C11.5547 13.332 10.4107 13.64 9.472 14.256C8.53333 14.872 7.81467 15.7667 7.316 16.94C6.84667 18.084 6.612 19.4627 6.612 21.076C6.612 22.572 6.84667 23.9067 7.316 25.08C7.78533 26.224 8.504 27.1333 9.472 27.808C10.44 28.4533 11.672 28.776 13.168 28.776C14.664 28.776 15.8813 28.4827 16.82 27.896C17.7587 27.28 18.36 26.532 18.624 25.652H24.256C23.904 27.2947 23.2293 28.732 22.232 29.964C21.2347 31.196 19.9587 32.1493 18.404 32.824C16.8787 33.4987 15.1333 33.836 13.168 33.836ZM40.1452 33.308C37.9452 33.308 36.1265 33.0293 34.6892 32.472C33.2812 31.8853 32.2252 30.9173 31.5212 29.568C30.8172 28.1893 30.4652 26.3413 30.4652 24.024L30.5092 2.376H36.2292L36.1852 24.42C36.1852 25.5933 36.4932 26.5027 37.1092 27.148C37.7545 27.764 38.6638 28.072 39.8372 28.072H43.5772V33.308H40.1452ZM26.6812 13.596V9.108H43.5772V13.596H26.6812ZM48.7104 33V0.879999H54.8264V19.624H53.7704C53.7704 17.2187 54.0784 15.18 54.6944 13.508C55.3104 11.836 56.2197 10.56 57.4224 9.68C58.6544 8.8 60.209 8.36 62.0864 8.36H62.3504C65.0784 8.36 67.1464 9.29867 68.5544 11.176C69.9624 13.0533 70.6664 15.7813 70.6664 19.36V33H64.5504V18.788C64.5504 17.2627 64.1104 16.06 63.2304 15.18C62.3797 14.3 61.2504 13.86 59.8424 13.86C58.3464 13.86 57.129 14.3587 56.1904 15.356C55.281 16.324 54.8264 17.6 54.8264 19.184V33H48.7104ZM91.7176 33V25.916H90.7056V18.04C90.7056 16.6613 90.3683 15.6347 89.6936 14.96C89.019 14.2853 87.9776 13.948 86.5696 13.948C85.8363 13.948 84.9563 13.9627 83.9296 13.992C82.903 14.0213 81.8616 14.0653 80.8056 14.124C79.779 14.1533 78.855 14.1973 78.0336 14.256V9.064C78.7083 9.00533 79.471 8.94667 80.3216 8.888C81.1723 8.82933 82.0376 8.8 82.9176 8.8C83.827 8.77067 84.6776 8.756 85.4696 8.756C87.9336 8.756 89.9723 9.07867 91.5856 9.724C93.2283 10.3693 94.4603 11.3813 95.2816 12.76C96.1323 14.1387 96.5576 15.9427 96.5576 18.172V33H91.7176ZM84.0176 33.616C82.287 33.616 80.7616 33.308 79.4416 32.692C78.151 32.076 77.139 31.196 76.4056 30.052C75.7016 28.908 75.3496 27.5293 75.3496 25.916C75.3496 24.156 75.775 22.7187 76.6256 21.604C77.5056 20.4893 78.723 19.6533 80.2776 19.096C81.8616 18.5387 83.7096 18.26 85.8216 18.26H91.3656V21.912H85.7336C84.3256 21.912 83.2403 22.264 82.4776 22.968C81.7443 23.6427 81.3776 24.5227 81.3776 25.608C81.3776 26.6933 81.7443 27.5733 82.4776 28.248C83.2403 28.9227 84.3256 29.26 85.7336 29.26C86.5843 29.26 87.3616 29.1133 88.0656 28.82C88.799 28.4973 89.4003 27.9693 89.8696 27.236C90.3683 26.4733 90.647 25.4467 90.7056 24.156L92.2016 25.872C92.055 27.544 91.6443 28.952 90.9696 30.096C90.3243 31.24 89.415 32.12 88.2416 32.736C87.0976 33.3227 85.6896 33.616 84.0176 33.616ZM103.109 33V9.108H107.949V19.36H107.509C107.509 16.9253 107.831 14.9013 108.477 13.288C109.122 11.6453 110.075 10.4133 111.337 9.592C112.627 8.77067 114.226 8.36 116.133 8.36H116.397C119.242 8.36 121.398 9.284 122.865 11.132C124.331 12.9507 125.065 15.6787 125.065 19.316V33H118.949V18.788C118.949 17.3213 118.523 16.1333 117.673 15.224C116.851 14.3147 115.707 13.86 114.241 13.86C112.745 13.86 111.527 14.3293 110.589 15.268C109.679 16.1773 109.225 17.4093 109.225 18.964V33H103.109ZM149.1 33.66C146.225 33.66 144.011 33 142.456 31.68C140.931 30.36 140.153 28.6733 140.124 26.62H142.412C142.412 27.94 142.925 29.0987 143.952 30.096C145.008 31.064 146.724 31.548 149.1 31.548C151.417 31.548 153.119 31.064 154.204 30.096C155.289 29.0987 155.832 27.9253 155.832 26.576C155.832 25.256 155.333 24.244 154.336 23.54C153.368 22.836 152.048 22.396 150.376 22.22L147.648 21.912C145.624 21.6773 144.011 21.0467 142.808 20.02C141.635 18.9933 141.048 17.6 141.048 15.84C141.048 14.5787 141.371 13.4493 142.016 12.452C142.661 11.4547 143.585 10.6627 144.788 10.076C146.02 9.48933 147.457 9.196 149.1 9.196C151.505 9.196 153.441 9.78267 154.908 10.956C156.404 12.1293 157.167 13.728 157.196 15.752H154.908C154.937 14.4907 154.439 13.4347 153.412 12.584C152.415 11.7333 150.977 11.308 149.1 11.308C147.135 11.308 145.668 11.7627 144.7 12.672C143.761 13.5813 143.292 14.652 143.292 15.884C143.292 16.9107 143.659 17.7907 144.392 18.524C145.155 19.2573 146.299 19.712 147.824 19.888L150.552 20.196C152.723 20.4013 154.512 21.032 155.92 22.088C157.357 23.144 158.076 24.6547 158.076 26.62C158.076 27.94 157.709 29.128 156.976 30.184C156.272 31.24 155.26 32.0907 153.94 32.736C152.62 33.352 151.007 33.66 149.1 33.66ZM165.223 33V9.9H167.071V19.36H166.543C166.543 17.3653 166.837 15.62 167.423 14.124C168.039 12.5987 168.949 11.4107 170.151 10.56C171.354 9.70933 172.879 9.284 174.727 9.284H174.859C176.678 9.284 178.189 9.70933 179.391 10.56C180.594 11.3813 181.474 12.5547 182.031 14.08C182.618 15.576 182.911 17.336 182.911 19.36H182.031C182.031 17.3653 182.325 15.62 182.911 14.124C183.527 12.5987 184.437 11.4107 185.639 10.56C186.871 9.70933 188.411 9.284 190.259 9.284H190.391C192.21 9.284 193.721 9.70933 194.923 10.56C196.155 11.3813 197.065 12.5547 197.651 14.08C198.238 15.576 198.531 17.336 198.531 19.36V33H196.199V18.832C196.199 16.632 195.657 14.8573 194.571 13.508C193.515 12.1293 191.946 11.44 189.863 11.44C187.751 11.44 186.079 12.144 184.847 13.552C183.645 14.96 183.043 16.7933 183.043 19.052V33H180.711V18.832C180.711 16.632 180.169 14.8573 179.083 13.508C178.027 12.1293 176.458 11.44 174.375 11.44C172.263 11.44 170.591 12.144 169.359 13.552C168.157 14.96 167.555 16.7933 167.555 19.052V33H165.223ZM208.522 33V9.9H210.898V33H208.522ZM204.694 11.924V9.9H210.898V11.924H204.694ZM208.742 5.06C208.126 5.06 207.656 4.89866 207.334 4.576C207.011 4.224 206.85 3.784 206.85 3.256C206.85 2.69866 207.011 2.244 207.334 1.892C207.656 1.54 208.14 1.364 208.786 1.364C209.402 1.364 209.871 1.54 210.194 1.892C210.516 2.244 210.678 2.69866 210.678 3.256C210.678 3.784 210.516 4.224 210.194 4.576C209.9 4.89866 209.416 5.06 208.742 5.06ZM227.709 33.22C226.271 33.22 225.01 33.0147 223.925 32.604C222.839 32.164 222.003 31.4307 221.417 30.404C220.83 29.3773 220.537 27.9987 220.537 26.268V2.376H222.825V26.664C222.825 28.072 223.206 29.172 223.969 29.964C224.761 30.7267 225.846 31.108 227.225 31.108H231.537V33.22H227.709ZM216.137 11.792V9.9H231.537V11.792H216.137ZM238.356 33V0.879999H240.688V18.04L239.852 19.536C239.852 17.512 240.16 15.7373 240.776 14.212C241.422 12.6573 242.39 11.4547 243.68 10.604C244.971 9.724 246.599 9.284 248.564 9.284H248.652C251.527 9.284 253.698 10.1933 255.164 12.012C256.631 13.8013 257.364 16.2507 257.364 19.36V33H254.988V18.832C254.988 16.6027 254.387 14.8133 253.184 13.464C251.982 12.1147 250.28 11.44 248.08 11.44C245.822 11.44 244.018 12.1587 242.668 13.596C241.348 15.004 240.688 16.852 240.688 19.14V33H238.356Z" fill="white"/>
<path d="M265.19 33V28.644H269.326V33H265.19Z" fill="#F13024"/>
</svg> -->
<!-- <svg width="270" height="34" viewBox="0 0 117 20" fill="none" xmlns="http://www.w3.org/2000/svg">
<path d="M0.46 15V4.04H3V8.74H2.94C2.94 7.19333 3.26667 6 3.92 5.16C4.58667 4.32 5.54667 3.9 6.8 3.9H7.22V6.66H6.42C5.54 6.66 4.86 6.9 4.38 7.38C3.9 7.84667 3.66 8.52667 3.66 9.42V15H0.46ZM15.4198 15V11.76H14.8798V8.24C14.8798 7.68 14.7465 7.26 14.4798 6.98C14.2132 6.7 13.7865 6.56 13.1998 6.56C12.9065 6.56 12.5198 6.56667 12.0398 6.58C11.5598 6.59333 11.0665 6.61333 10.5598 6.64C10.0532 6.66667 9.59318 6.69333 9.17984 6.72V4.02C9.48651 3.99333 9.84651 3.96667 10.2598 3.94C10.6732 3.91333 11.0998 3.89333 11.5398 3.88C11.9798 3.86667 12.3932 3.86 12.7798 3.86C13.8998 3.86 14.8398 4.02 15.5998 4.34C16.3732 4.66 16.9598 5.14667 17.3598 5.8C17.7598 6.44 17.9598 7.26667 17.9598 8.28V15H15.4198ZM11.9198 15.28C11.1332 15.28 10.4398 15.14 9.83984 14.86C9.25318 14.58 8.79318 14.18 8.45984 13.66C8.12651 13.1267 7.95984 12.4933 7.95984 11.76C7.95984 10.96 8.16651 10.3067 8.57984 9.8C8.99318 9.28 9.57318 8.9 10.3198 8.66C11.0665 8.40667 11.9265 8.28 12.8998 8.28H15.2398V10.06H12.8798C12.3198 10.06 11.8865 10.2 11.5798 10.48C11.2865 10.7467 11.1398 11.1133 11.1398 11.58C11.1398 12.02 11.2865 12.38 11.5798 12.66C11.8865 12.9267 12.3198 13.06 12.8798 13.06C13.2398 13.06 13.5598 13 13.8398 12.88C14.1332 12.7467 14.3732 12.5267 14.5598 12.22C14.7465 11.9133 14.8532 11.4867 14.8798 10.94L15.6398 11.74C15.5732 12.5 15.3865 13.14 15.0798 13.66C14.7865 14.18 14.3732 14.58 13.8398 14.86C13.3198 15.14 12.6798 15.28 11.9198 15.28ZM20.3595 19.34V16.62H22.6395C22.9862 16.62 23.2795 16.5733 23.5195 16.48C23.7595 16.4 23.9529 16.26 24.0995 16.06C24.2462 15.86 24.3662 15.5867 24.4595 15.24L27.1595 4.04H30.1995L27.1395 15.88C26.9262 16.7333 26.6262 17.4133 26.2395 17.92C25.8662 18.4267 25.3595 18.7867 24.7195 19C24.0929 19.2267 23.2929 19.34 22.3195 19.34H20.3595ZM23.7995 14.76V12.26H26.1195V14.76H23.7995ZM22.4795 14.76L19.1195 4.04H22.3395L25.5195 14.76H22.4795ZM36.6519 15.38C35.7185 15.38 34.8919 15.22 34.1719 14.9C33.4652 14.58 32.8719 14.1533 32.3919 13.62C31.9252 13.0733 31.5652 12.4667 31.3119 11.8C31.0719 11.12 30.9519 10.4267 30.9519 9.72V9.32C30.9519 8.58667 31.0719 7.88667 31.3119 7.22C31.5652 6.54 31.9252 5.93333 32.3919 5.4C32.8585 4.86667 33.4385 4.44667 34.1319 4.14C34.8385 3.82 35.6385 3.66 36.5319 3.66C37.7052 3.66 38.6919 3.92667 39.4919 4.46C40.3052 4.98 40.9252 5.66667 41.3519 6.52C41.7785 7.36 41.9919 8.28 41.9919 9.28V10.36H32.2919V8.54H40.0519L39.0119 9.38C39.0119 8.72667 38.9185 8.16667 38.7319 7.7C38.5452 7.23333 38.2652 6.88 37.8919 6.64C37.5319 6.38667 37.0785 6.26 36.5319 6.26C35.9719 6.26 35.4985 6.38667 35.1119 6.64C34.7252 6.89333 34.4319 7.26667 34.2319 7.76C34.0319 8.24 33.9319 8.83333 33.9319 9.54C33.9319 10.1933 34.0252 10.7667 34.2119 11.26C34.3985 11.74 34.6919 12.1133 35.0919 12.38C35.4919 12.6467 36.0119 12.78 36.6519 12.78C37.2385 12.78 37.7185 12.6667 38.0919 12.44C38.4652 12.2133 38.7185 11.9333 38.8519 11.6H41.7919C41.6319 12.3333 41.3185 12.9867 40.8519 13.56C40.3852 14.1333 39.7985 14.58 39.0919 14.9C38.3852 15.22 37.5719 15.38 36.6519 15.38ZM44.1123 15V4.04H46.6523V8.74H46.4723C46.4723 7.62 46.6123 6.68667 46.8923 5.94C47.1857 5.19333 47.6257 4.63333 48.2123 4.26C48.799 3.88667 49.5123 3.7 50.3523 3.7H50.4923C51.7723 3.7 52.7457 4.12 53.4123 4.96C54.0923 5.78667 54.4323 7.04667 54.4323 8.74V15H51.2323V8.56C51.2323 7.97333 51.059 7.49333 50.7123 7.12C50.3657 6.74667 49.899 6.56 49.3123 6.56C48.7123 6.56 48.2257 6.75333 47.8523 7.14C47.4923 7.51333 47.3123 8.00667 47.3123 8.62V15H44.1123ZM62.8444 15V3.42C62.8444 2.38 63.1044 1.61333 63.6244 1.12C64.1577 0.626667 64.9577 0.38 66.0244 0.38H67.4044V1.3H65.7844C65.171 1.3 64.6977 1.46667 64.3644 1.8C64.0444 2.12 63.8844 2.57333 63.8844 3.16V15H62.8444ZM61.2244 5.42V4.58H67.6244V5.42H61.2244ZM69.81 15V4.5H70.65V8.94H70.49C70.49 7.42 70.83 6.28667 71.51 5.54C72.19 4.79333 73.29 4.42 74.81 4.42H75.17V5.38H74.61C73.37 5.38 72.4367 5.7 71.81 6.34C71.1833 6.96667 70.87 7.89333 70.87 9.12V15H69.81ZM78.3192 15V4.5H79.3992V15H78.3192ZM76.5792 5.42V4.5H79.3992V5.42H76.5792ZM78.4192 2.3C78.1392 2.3 77.9259 2.22667 77.7792 2.08C77.6326 1.92 77.5592 1.72 77.5592 1.48C77.5592 1.22667 77.6326 1.02 77.7792 0.86C77.9259 0.699999 78.1459 0.619999 78.4392 0.619999C78.7192 0.619999 78.9326 0.699999 79.0792 0.86C79.2259 1.02 79.2992 1.22667 79.2992 1.48C79.2992 1.72 79.2259 1.92 79.0792 2.08C78.9459 2.22667 78.7259 2.3 78.4192 2.3ZM87.5405 19.1C87.0738 19.1 86.5871 19.08 86.0805 19.04C85.5738 19 85.0871 18.94 84.6205 18.86V17.92C85.1005 18 85.6005 18.06 86.1205 18.1C86.6538 18.1533 87.1538 18.18 87.6205 18.18C88.6871 18.18 89.5271 18.04 90.1405 17.76C90.7538 17.4933 91.1938 17.0467 91.4605 16.42C91.7271 15.8067 91.8605 14.9867 91.8605 13.96V11.8L92.3405 10.34C92.3271 11.3 92.1205 12.1467 91.7205 12.88C91.3338 13.6133 90.7938 14.1933 90.1005 14.62C89.4071 15.0333 88.5938 15.24 87.6605 15.24C86.8738 15.24 86.1671 15.0933 85.5405 14.8C84.9271 14.4933 84.4071 14.0867 83.9805 13.58C83.5538 13.06 83.2271 12.4733 83.0005 11.82C82.7738 11.1533 82.6605 10.4733 82.6605 9.78V9.58C82.6605 8.9 82.7738 8.24 83.0005 7.6C83.2271 6.94667 83.5538 6.36667 83.9805 5.86C84.4071 5.34 84.9338 4.93333 85.5605 4.64C86.1871 4.33333 86.9005 4.18 87.7005 4.18C88.6738 4.18 89.5138 4.4 90.2205 4.84C90.9271 5.28 91.4671 5.87333 91.8405 6.62C92.2271 7.36667 92.4271 8.19333 92.4405 9.1L92.0405 8.56V4.5H92.9005V13.96C92.9005 15.2133 92.7271 16.2133 92.3805 16.96C92.0338 17.72 91.4671 18.2667 90.6805 18.6C89.8938 18.9333 88.8471 19.1 87.5405 19.1ZM87.8005 14.26C88.6005 14.26 89.3071 14.0867 89.9205 13.74C90.5338 13.38 91.0138 12.8933 91.3605 12.28C91.7071 11.6533 91.8805 10.9467 91.8805 10.16V9.14C91.8805 8.38 91.7071 7.7 91.3605 7.1C91.0271 6.48667 90.5538 6 89.9405 5.64C89.3271 5.28 88.6205 5.1 87.8205 5.1C86.9405 5.1 86.1938 5.31333 85.5805 5.74C84.9805 6.16667 84.5205 6.72667 84.2005 7.42C83.8805 8.11333 83.7205 8.86667 83.7205 9.68C83.7205 10.52 83.8871 11.2933 84.2205 12C84.5538 12.6933 85.0205 13.2467 85.6205 13.66C86.2338 14.06 86.9605 14.26 87.8005 14.26ZM100.48 15.3C99.2132 15.3 98.2532 14.8933 97.5998 14.08C96.9465 13.2667 96.6198 12.1667 96.6198 10.78V4.5H97.6998V11.02C97.6998 11.9933 97.9532 12.7867 98.4598 13.4C98.9798 14 99.7265 14.3 100.7 14.3C101.687 14.3 102.467 13.9867 103.04 13.36C103.627 12.7333 103.92 11.9133 103.92 10.9V4.5H104.98V15H104.14V10.76H104.38C104.38 11.6533 104.233 12.4467 103.94 13.14C103.66 13.82 103.24 14.3533 102.68 14.74C102.12 15.1133 101.407 15.3 100.54 15.3H100.48ZM109.706 15V4.5H110.786V15H109.706ZM107.966 5.42V4.5H110.786V5.42H107.966ZM109.806 2.3C109.526 2.3 109.313 2.22667 109.166 2.08C109.019 1.92 108.946 1.72 108.946 1.48C108.946 1.22667 109.019 1.02 109.166 0.86C109.313 0.699999 109.533 0.619999 109.826 0.619999C110.106 0.619999 110.319 0.699999 110.466 0.86C110.613 1.02 110.686 1.22667 110.686 1.48C110.686 1.72 110.613 1.92 110.466 2.08C110.333 2.22667 110.113 2.3 109.806 2.3ZM114.707 15V13.46H116.107V15H114.707Z" fill="white"/>
<path d="M265.19 33V28.644H269.326V33H265.19Z" fill="#F13024"/>
</svg> -->
<svg width="210" height="34" viewBox="0 0 186 31" fill="none" xmlns="http://www.w3.org/2000/svg">
<path d="M0.336 24V6.464H4.4V13.984H4.304C4.304 11.5093 4.82667 9.6 5.872 8.256C6.93867 6.912 8.47467 6.24 10.48 6.24H11.152V10.656H9.872C8.464 10.656 7.376 11.04 6.608 11.808C5.84 12.5547 5.456 13.6427 5.456 15.072V24H0.336ZM24.2718 24V18.816H23.4078V13.184C23.4078 12.288 23.1944 11.616 22.7678 11.168C22.3411 10.72 21.6584 10.496 20.7198 10.496C20.2504 10.496 19.6318 10.5067 18.8638 10.528C18.0958 10.5493 17.3064 10.5813 16.4958 10.624C15.6851 10.6667 14.9491 10.7093 14.2878 10.752V6.432C14.7784 6.38933 15.3544 6.34667 16.0158 6.304C16.6771 6.26133 17.3598 6.22933 18.0638 6.208C18.7678 6.18667 19.4291 6.176 20.0478 6.176C21.8398 6.176 23.3438 6.432 24.5598 6.944C25.7971 7.456 26.7358 8.23467 27.3758 9.28C28.0158 10.304 28.3358 11.6267 28.3358 13.248V24H24.2718ZM18.6718 24.448C17.4131 24.448 16.3038 24.224 15.3438 23.776C14.4051 23.328 13.6691 22.688 13.1358 21.856C12.6024 21.0027 12.3358 19.9893 12.3358 18.816C12.3358 17.536 12.6664 16.4907 13.3278 15.68C13.9891 14.848 14.9171 14.24 16.1118 13.856C17.3064 13.4507 18.6824 13.248 20.2398 13.248H23.9838V16.096H20.2078C19.3118 16.096 18.6184 16.32 18.1278 16.768C17.6584 17.1947 17.4238 17.7813 17.4238 18.528C17.4238 19.232 17.6584 19.808 18.1278 20.256C18.6184 20.6827 19.3118 20.896 20.2078 20.896C20.7838 20.896 21.2958 20.8 21.7438 20.608C22.2131 20.3947 22.5971 20.0427 22.8958 19.552C23.1944 19.0613 23.3651 18.3787 23.4078 17.504L24.6238 18.784C24.5171 20 24.2184 21.024 23.7278 21.856C23.2584 22.688 22.5971 23.328 21.7438 23.776C20.9118 24.224 19.8878 24.448 18.6718 24.448ZM32.1753 30.944V26.592H35.8233C36.3779 26.592 36.8473 26.5173 37.2313 26.368C37.6153 26.24 37.9246 26.016 38.1593 25.696C38.3939 25.376 38.5859 24.9387 38.7353 24.384L43.0553 6.464H47.9193L43.0233 25.408C42.6819 26.7733 42.2019 27.8613 41.5833 28.672C40.9859 29.4827 40.1753 30.0587 39.1513 30.4C38.1486 30.7627 36.8686 30.944 35.3113 30.944H32.1753ZM37.6793 23.616V19.616H41.3913V23.616H37.6793ZM35.5673 23.616L30.1913 6.464H35.3433L40.4313 23.616H35.5673ZM58.243 24.608C56.7497 24.608 55.427 24.352 54.275 23.84C53.1443 23.328 52.195 22.6453 51.427 21.792C50.6803 20.9173 50.1043 19.9467 49.699 18.88C49.315 17.792 49.123 16.6827 49.123 15.552V14.912C49.123 13.7387 49.315 12.6187 49.699 11.552C50.1043 10.464 50.6803 9.49333 51.427 8.64C52.1737 7.78667 53.1017 7.11467 54.211 6.624C55.3417 6.112 56.6217 5.856 58.051 5.856C59.9283 5.856 61.507 6.28267 62.787 7.136C64.0883 7.968 65.0803 9.06667 65.763 10.432C66.4457 11.776 66.787 13.248 66.787 14.848V16.576H51.267V13.664H63.683L62.019 15.008C62.019 13.9627 61.8697 13.0667 61.571 12.32C61.2723 11.5733 60.8243 11.008 60.227 10.624C59.651 10.2187 58.9257 10.016 58.051 10.016C57.155 10.016 56.3977 10.2187 55.779 10.624C55.1603 11.0293 54.691 11.6267 54.371 12.416C54.051 13.184 53.891 14.1333 53.891 15.264C53.891 16.3093 54.0403 17.2267 54.339 18.016C54.6377 18.784 55.107 19.3813 55.747 19.808C56.387 20.2347 57.219 20.448 58.243 20.448C59.1817 20.448 59.9497 20.2667 60.547 19.904C61.1443 19.5413 61.5497 19.0933 61.763 18.56H66.467C66.211 19.7333 65.7097 20.7787 64.963 21.696C64.2163 22.6133 63.2777 23.328 62.147 23.84C61.0163 24.352 59.715 24.608 58.243 24.608ZM70.1798 24V6.464H74.2438V13.984H73.9558C73.9558 12.192 74.1798 10.6987 74.6278 9.504C75.0971 8.30933 75.8011 7.41333 76.7398 6.816C77.6784 6.21867 78.8198 5.92 80.1638 5.92H80.3878C82.4358 5.92 83.9931 6.592 85.0598 7.936C86.1478 9.25867 86.6918 11.2747 86.6918 13.984V24H81.5718V13.696C81.5718 12.7573 81.2944 11.9893 80.7398 11.392C80.1851 10.7947 79.4384 10.496 78.4998 10.496C77.5398 10.496 76.7611 10.8053 76.1638 11.424C75.5878 12.0213 75.2998 12.8107 75.2998 13.792V24H70.1798ZM100.151 24V5.472C100.151 3.808 100.567 2.58133 101.399 1.792C102.252 1.00267 103.532 0.608 105.239 0.608H107.447V2.08H104.855C103.874 2.08 103.116 2.34667 102.583 2.88C102.071 3.392 101.815 4.11733 101.815 5.056V24H100.151ZM97.559 8.672V7.328H107.799V8.672H97.559ZM111.296 24V7.2H112.64V14.304H112.384C112.384 11.872 112.928 10.0587 114.016 8.864C115.104 7.66933 116.864 7.072 119.296 7.072H119.872V8.608H118.976C116.992 8.608 115.499 9.12 114.496 10.144C113.493 11.1467 112.992 12.6293 112.992 14.592V24H111.296ZM124.911 24V7.2H126.639V24H124.911ZM122.127 8.672V7.2H126.639V8.672H122.127ZM125.071 3.68C124.623 3.68 124.281 3.56267 124.047 3.328C123.812 3.072 123.695 2.752 123.695 2.368C123.695 1.96266 123.812 1.632 124.047 1.376C124.281 1.12 124.633 0.991999 125.103 0.991999C125.551 0.991999 125.892 1.12 126.127 1.376C126.361 1.632 126.479 1.96266 126.479 2.368C126.479 2.752 126.361 3.072 126.127 3.328C125.913 3.56267 125.561 3.68 125.071 3.68ZM139.665 30.56C138.918 30.56 138.139 30.528 137.329 30.464C136.518 30.4 135.739 30.304 134.993 30.176V28.672C135.761 28.8 136.561 28.896 137.393 28.96C138.246 29.0453 139.046 29.088 139.793 29.088C141.499 29.088 142.843 28.864 143.825 28.416C144.806 27.9893 145.51 27.2747 145.937 26.272C146.363 25.2907 146.577 23.9787 146.577 22.336V18.88L147.345 16.544C147.323 18.08 146.993 19.4347 146.353 20.608C145.734 21.7813 144.87 22.7093 143.761 23.392C142.651 24.0533 141.35 24.384 139.857 24.384C138.598 24.384 137.467 24.1493 136.465 23.68C135.483 23.1893 134.651 22.5387 133.969 21.728C133.286 20.896 132.763 19.9573 132.401 18.912C132.038 17.8453 131.857 16.7573 131.857 15.648V15.328C131.857 14.24 132.038 13.184 132.401 12.16C132.763 11.1147 133.286 10.1867 133.969 9.376C134.651 8.544 135.494 7.89333 136.497 7.424C137.499 6.93333 138.641 6.688 139.921 6.688C141.478 6.688 142.822 7.04 143.953 7.744C145.083 8.448 145.947 9.39733 146.545 10.592C147.163 11.7867 147.483 13.1093 147.505 14.56L146.865 13.696V7.2H148.241V22.336C148.241 24.3413 147.963 25.9413 147.409 27.136C146.854 28.352 145.947 29.2267 144.689 29.76C143.43 30.2933 141.755 30.56 139.665 30.56ZM140.081 22.816C141.361 22.816 142.491 22.5387 143.473 21.984C144.454 21.408 145.222 20.6293 145.777 19.648C146.331 18.6453 146.609 17.5147 146.609 16.256V14.624C146.609 13.408 146.331 12.32 145.777 11.36C145.243 10.3787 144.486 9.6 143.505 9.024C142.523 8.448 141.393 8.16 140.113 8.16C138.705 8.16 137.51 8.50133 136.529 9.184C135.569 9.86667 134.833 10.7627 134.321 11.872C133.809 12.9813 133.553 14.1867 133.553 15.488C133.553 16.832 133.819 18.0693 134.353 19.2C134.886 20.3093 135.633 21.1947 136.593 21.856C137.574 22.496 138.737 22.816 140.081 22.816ZM160.368 24.48C158.341 24.48 156.805 23.8293 155.76 22.528C154.714 21.2267 154.192 19.4667 154.192 17.248V7.2H155.92V17.632C155.92 19.1893 156.325 20.4587 157.136 21.44C157.968 22.4 159.162 22.88 160.72 22.88C162.298 22.88 163.546 22.3787 164.464 21.376C165.402 20.3733 165.872 19.0613 165.872 17.44V7.2H167.568V24H166.224V17.216H166.608C166.608 18.6453 166.373 19.9147 165.904 21.024C165.456 22.112 164.784 22.9653 163.888 23.584C162.992 24.1813 161.85 24.48 160.464 24.48H160.368ZM175.13 24V7.2H176.858V24H175.13ZM172.346 8.672V7.2H176.858V8.672H172.346ZM175.29 3.68C174.842 3.68 174.5 3.56267 174.266 3.328C174.031 3.072 173.914 2.752 173.914 2.368C173.914 1.96266 174.031 1.632 174.266 1.376C174.5 1.12 174.852 0.991999 175.322 0.991999C175.77 0.991999 176.111 1.12 176.346 1.376C176.58 1.632 176.698 1.96266 176.698 2.368C176.698 2.752 176.58 3.072 176.346 3.328C176.132 3.56267 175.78 3.68 175.29 3.68Z" fill="white"/>
<path d="M183.132 24V21.536H185.372V24H183.132Z" fill="#F13024"/>
</svg>
